# xmcd
#
# Track frame offsets: 
#        150
#        29656
#        49015
#        61435
#        86441
#        104321
#        122015
#        145462
#        163309
#        181341
#        215106
#        232448
#        304482
#
# Disc length: 4402 seconds
#
# Revision: 0
# Processed by: cddbd v1.5.2PL0 Copyright (c) Steve Scherf et al.
# Submitted via: ExactAudioCopy v0.95b4
#
DISCID=cc11300d
DTITLE=Nickel Creek - Live at the Strawberry Music Festival  2001-05-2
DTITLE=7
DYEAR=2001
DGENRE=Bluegrass
TTITLE0=1. Big Sam Thompson
TTITLE1=2. You Don't Have To Move That Mountain
TTITLE2=3. (band intro)
TTITLE3=4. The Lighthouse's Tale
TTITLE4=5. Ferdinand The Bull
TTITLE5=6. Let It Fall
TTITLE6=7. Reasons Why
TTITLE7=8. In The House Of Tom Bombadil
TTITLE8=9. Green And Gray
TTITLE9=10. Think About Your Troubles
TTITLE10=11. When You Come Back Down
TTITLE11=12. The Fox - Subterranean Homesick Blues
TTITLE12=13. Ode To A Butterfly
EXTD=
EXTT0=
EXTT1=
EXTT2=
EXTT3=
EXTT4=
EXTT5=
EXTT6=
EXTT7=
EXTT8=
EXTT9=
EXTT10=
EXTT11=
EXTT12=
PLAYORDER=
